/* XPM */
static char * closed_exit_xpm[] = {
"24 34 3 1",
" 	c #FF00FF",
".	c #FFFFFF",
"+	c #000000",
"    ................    ",
"    ................    ",
"    ................    ",
"    ................    ",
"....++++++++++++++++....",
"....++++++++++++++++....",
"....++++++++++++++++....",
"....++++++++++++++++....",
"....++++++++++++++++....",
"....++++++++++++++++....",
"....++++++++++++++++....",
"....++++++++++++++++....",
"....++++++++++++++++....",
"....++++++++++++++++....",
"....++++++++++++++++....",
"....++++++++++++++++....",
"....++++++++++++++++....",
"....++++++++++++++++....",
"............++++++++....",
"............++++++++....",
"............++++++++....",
"............++++++++....",
"....++++....++++++++....",
"....++++....++++++++....",
"....++++....++++++++....",
"....++++....++++++++....",
"....++++++++++++++++....",
"....++++++++++++++++....",
"....++++++++++++++++....",
"....++++++++++++++++....",
"....++++++++++++++++....",
"....++++++++++++++++....",
"....++++++++++++++++....",
"....++++++++++++++++...."};
