/* XPM */
static char * coin_xpm[] = {
"12 16 3 1",
" 	c #FF00FF",
".	c #FFFFFF",
"+	c #000000",
"   ......   ",
"   ......   ",
"   ......   ",
"...++++++...",
"...++++++...",
"...++++++...",
"...++++++...",
"...++++++...",
"...++++++...",
"...++++++...",
"...++++++...",
"...++++++...",
"...++++++...",
"   ......   ",
"   ......   ",
"   ......   "};
