/* XPM */
static char * e_walk_l_xpm[] = {
"20 20 3 1",
" 	c #FFFFFF",
".	c #000000",
"+	c #FF00FF",
"                    ",
"                    ",
"                    ",
"                    ",
"....    ........    ",
"....    ........    ",
"....    ........    ",
"....    ........    ",
"....    ........    ",
"....    ........    ",
"....    ........    ",
"....    ........    ",
"                ++++",
"                ++++",
"                ++++",
"                ++++",
"    ++++    ++++++++",
"    ++++    ++++++++",
"    ++++    ++++++++",
"    ++++    ++++++++"};
