/* XPM */
static char * n2_xpm[] = {
"10 20 2 1",
" 	c #FF0000",
".	c #FF00FF",
"          ",
"          ",
"          ",
"   ....   ",
".......   ",
".......   ",
".......   ",
"......    ",
".....     ",
"....     .",
"....    ..",
"...    ...",
"..     ...",
".     ....",
"     .....",
"    ......",
"   .......",
"          ",
"          ",
"          "};
