/* XPM */
static char * n4_xpm[] = {
"10 20 2 1",
" 	c #FF0000",
".	c #FF00FF",
"   ....   ",
"   ....   ",
"   ....   ",
"   ....   ",
"   ....   ",
"   ....   ",
"   ....   ",
"   ....   ",
"   ....   ",
"          ",
"          ",
"          ",
".......   ",
".......   ",
".......   ",
".......   ",
".......   ",
".......   ",
".......   ",
".......   "};
