/* XPM */
static char * n6_xpm[] = {
"10 20 2 1",
" 	c #FF00FF",
".	c #FF0000",
"   .......",
"   .......",
"   .......",
"...       ",
"...       ",
"...       ",
"...       ",
"...       ",
"...       ",
"..........",
"..........",
"..........",
"...    ...",
"...    ...",
"...    ...",
"...    ...",
"...    ...",
"   .......",
"   .......",
"   ......."};
