/* XPM */
static char * n8_xpm[] = {
"10 20 2 1",
" 	c #FF0000",
".	c #FF00FF",
"          ",
"          ",
"          ",
"   ....   ",
"   ....   ",
"   ....   ",
"   ....   ",
"   ....   ",
"   ....   ",
"          ",
"          ",
"          ",
"   ....   ",
"   ....   ",
"   ....   ",
"   ....   ",
"   ....   ",
"          ",
"          ",
"          "};
