/* XPM */
static char * open_exit_xpm[] = {
"24 34 3 1",
" 	c #FF00FF",
".	c #FFFFFF",
"+	c #000000",
"    ................    ",
"    ................    ",
"    ................    ",
"    ................    ",
"....++++++++....++++....",
"....++++++++....++++....",
"....++++++++....++++....",
"....++++++++....++++....",
"....++++++++....++++....",
"....++++++++....++++....",
"....++++++++....++++....",
"....++++++++....++++....",
"....++++++++....++++....",
"....++++++++....++++....",
"....++++++++....++++....",
"....++++++++....++++....",
"....++++++++....++++....",
"....++++++++....++++....",
"....++++++++....++++....",
"....++++++++....++++....",
"....++++++++....++++....",
"....++++++++....++++....",
"....++++++++....++++....",
"....++++++++....++++....",
"....++++++++....++++....",
"....++++++++....++++....",
"....++++++++....++++....",
"....++++++++....++++....",
"....++++++++....++++....",
"....++++++++....++++....",
"....++++++++++++........",
"....++++++++++++........",
"....++++++++++++........",
"....++++++++++++........"};
