/* XPM */
static char * p_idle_1_xpm[] = {
"10 20 3 1",
" 	c #FF00FF",
".	c #FFFFFF",
"+	c #000000",
"  ......  ",
"  ......  ",
"..++++++..",
"..++++++..",
"....++....",
"....++....",
"....++....",
"....++....",
"....++....",
"          ",
" .......  ",
"  .....   ",
"  .....   ",
"  .....   ",
"  ....    ",
"  ....    ",
"   ...    ",
"   ..     ",
"   ..     ",
"   .      "};
