/* XPM */
static char * p_walk_l_2_xpm[] = {
"10 20 3 1",
" 	c #FFFFFF",
".	c #FF00FF",
"+	c #000000",
"      ....",
"      ....",
"++++++    ",
"++++++    ",
"  ++      ",
"  ++      ",
"  ++      ",
"  ++      ",
"  ++      ",
"..........",
".       ..",
"..     ...",
"..     ...",
"..     ...",
"..    ....",
"...   ....",
"....  ....",
"....  ....",
".....  ...",
".......  ."};
