/* XPM */
static char * p_walk_r_1_xpm[] = {
"10 20 3 1",
" 	c #FF00FF",
".	c #FFFFFF",
"+	c #000000",
"    ......",
"    ......",
"....++++++",
"....++++++",
"......++..",
"......++..",
"......++..",
"......++..",
"......++..",
"          ",
"  ....... ",
"   ...... ",
"   ...... ",
"    ....  ",
"    ....  ",
"    ....  ",
"    ...   ",
"    ..    ",
"   ..     ",
"  ..      "};
