/* XPM */
static char * wall_xpm[] = {
"40 40 2 1",
" 	c #FFFFFF",
".	c #000000",
"     ..              ..          ..     ",
"     ..              ..          ..     ",
"     ..              ..          ..     ",
"     ..              ..          ..     ",
"........................................",
"........................................",
"          ..    ..         ..           ",
"          ..    ..         ..           ",
"          ..    ..         ..           ",
"          ..    ..         ..           ",
"........................................",
"........................................",
"        ..          ..       ..         ",
"        ..          ..       ..         ",
"        ..          ..       ..         ",
"        ..          ..       ..         ",
"........................................",
"........................................",
"    ..       ..          ..      ..     ",
"    ..       ..          ..      ..     ",
"    ..       ..          ..      ..     ",
"    ..       ..          ..      ..     ",
"........................................",
"........................................",
"       ..          ..         ..        ",
"       ..          ..         ..        ",
"       ..          ..         ..        ",
"       ..          ..         ..        ",
"........................................",
"........................................",
"         ..     ..          ..          ",
"         ..     ..          ..          ",
"         ..     ..          ..          ",
"         ..     ..          ..          ",
"........................................",
"........................................",
"     ..              ..          ..     ",
"     ..              ..          ..     ",
"     ..              ..          ..     ",
"     ..              ..          ..     "};
